<svg xmlns="http://www.w3.org/2000/svg" xmlns:xlink="http://www.w3.org/1999/xlink" style="margin:auto;background:#f1f2f3;display:block;z-index:1;position:relative" width="1834" height="924" preserveAspectRatio="xMidYMid" viewBox="0 0 1834 924">
<g transform="translate(917,462) scale(1,1) translate(-917,-462)"><defs>
  <linearGradient id="ldbk-photon-vnzxgh3zss-lg" x1="1060.8000000000002" x2="1834" y1="0" y2="0" gradientUnits="userSpaceOnUse">
    <stop stop-color="#b3c430" offset="0"></stop>
    <stop stop-color="#4c5630" offset="1"></stop>
  </linearGradient>
  <mask id="ldbk-photon-vnzxgh3zss-mask">
  <g><path d="M2134 -0.5 L1279.6812431695996 -0.5 A22 22 0 0 1 1279.6812431695996 44.5 L2134 44.5" fill="#fff">
  <animateTransform attributeName="transform" type="translate" dur="1.6129032258064517s" repeatCount="indefinite" keyTimes="0;0.5;1" calcMode="spline" keySplines="0.5 0 0.5 1;0.5 0 0.5 1" values="22.954589216831046;0;22.954589216831046" begin="0s"></animateTransform>
</path><path d="M1891.1756142095796 -0.5 L1904.3512284191593 -0.5 A22 22 0 0 1 1904.3512284191593 44.5 L1891.1756142095796 44.5 A22 22 0 0 1 1891.1756142095796 -0.5" fill="#000">
  <animateTransform attributeName="transform" type="translate" dur="3.2258064516129035s" repeatCount="indefinite" keyTimes="0;1" values="0;-909.9489864245453" begin="0s"></animateTransform>
  <animate attributeName="opacity" dur="3.2258064516129035s" repeatCount="indefinite" keyTimes="0;0.3;1" values="1;1;0" begin="0s"></animate>
</path><path d="M2134 43.5 L1143.6316555338017 43.5 A22 22 0 0 0 1143.6316555338017 88.5 L2134 88.5" fill="#fff">
  <animateTransform attributeName="transform" type="translate" dur="1.6129032258064517s" repeatCount="indefinite" keyTimes="0;0.5;1" calcMode="spline" keySplines="0.5 0 0.5 1;0.5 0 0.5 1" values="-20.01762962171951;0;-20.01762962171951" begin="-0.4608294930875576s"></animateTransform>
</path><path d="M1303.1137219725865 43.5 L1316.576658703077 43.5 A22 22 0 0 1 1316.576658703077 88.5 L1303.1137219725865 88.5 A22 22 0 0 1 1303.1137219725865 43.5" fill="#fff">
  <animateTransform attributeName="transform" type="translate" dur="1.6129032258064517s" repeatCount="indefinite" keyTimes="0;1" values="0;0" begin="-0.4608294930875576s"></animateTransform>
  <animate attributeName="opacity" dur="1.6129032258064517s" repeatCount="indefinite" keyTimes="0;0.3;1" values="1;1;0" begin="-0.4608294930875576s"></animate>
</path><path d="M2134 87.5 L1412.7978041303395 87.5 A22 22 0 0 1 1412.7978041303395 132.5 L2134 132.5" fill="#fff">
  <animateTransform attributeName="transform" type="translate" dur="1.6129032258064517s" repeatCount="indefinite" keyTimes="0;0.5;1" calcMode="spline" keySplines="0.5 0 0.5 1;0.5 0 0.5 1" values="23.141224660529236;0;23.141224660529236" begin="-0.9216589861751152s"></animateTransform>
</path><path d="M1892.0699298990576 87.5 L1906.1398597981151 87.5 A22 22 0 0 1 1906.1398597981151 132.5 L1892.0699298990576 132.5 A22 22 0 0 1 1892.0699298990576 87.5" fill="#000">
  <animateTransform attributeName="transform" type="translate" dur="3.2258064516129035s" repeatCount="indefinite" keyTimes="0;1" values="0;-1364.5540964307725" begin="-0.9216589861751152s"></animateTransform>
  <animate attributeName="opacity" dur="3.2258064516129035s" repeatCount="indefinite" keyTimes="0;0.3;1" values="1;1;0" begin="-0.9216589861751152s"></animate>
</path><path d="M2134 131.5 L1142.6641111599895 131.5 A22 22 0 0 0 1142.6641111599895 176.5 L2134 176.5" fill="#fff">
  <animateTransform attributeName="transform" type="translate" dur="3.2258064516129035s" repeatCount="indefinite" keyTimes="0;0.5;1" calcMode="spline" keySplines="0.5 0 0.5 1;0.5 0 0.5 1" values="-14.070585962722213;0;-14.070585962722213" begin="-1.3824884792626728s"></animateTransform>
</path><path d="M1284.4859234579199 131.5 L1323.7247836105712 131.5 A22 22 0 0 1 1323.7247836105712 176.5 L1284.4859234579199 176.5 A22 22 0 0 1 1284.4859234579199 131.5" fill="#fff">
  <animateTransform attributeName="transform" type="translate" dur="3.2258064516129035s" repeatCount="indefinite" keyTimes="0;1" values="0;0" begin="-1.3824884792626728s"></animateTransform>
  <animate attributeName="opacity" dur="3.2258064516129035s" repeatCount="indefinite" keyTimes="0;0.3;1" values="1;1;0" begin="-1.3824884792626728s"></animate>
</path><path d="M2134 175.5 L1427.6458635837457 175.5 A22 22 0 0 1 1427.6458635837457 220.5 L2134 220.5" fill="#fff">
  <animateTransform attributeName="transform" type="translate" dur="3.2258064516129035s" repeatCount="indefinite" keyTimes="0;0.5;1" calcMode="spline" keySplines="0.5 0 0.5 1;0.5 0 0.5 1" values="22.228583046946873;0;22.228583046946873" begin="-1.8433179723502304s"></animateTransform>
</path><path d="M1903.3049648675856 175.5 L1928.6099297351711 175.5 A22 22 0 0 1 1928.6099297351711 220.5 L1903.3049648675856 220.5 A22 22 0 0 1 1903.3049648675856 175.5" fill="#000">
  <animateTransform attributeName="transform" type="translate" dur="1.0752688172043012s" repeatCount="indefinite" keyTimes="0;1" values="0;-1138.8031308183795" begin="-1.8433179723502304s"></animateTransform>
  <animate attributeName="opacity" dur="1.0752688172043012s" repeatCount="indefinite" keyTimes="0;0.3;1" values="1;1;0" begin="-1.8433179723502304s"></animate>
</path><path d="M2134 219.5 L1117.1968408352463 219.5 A22 22 0 0 0 1117.1968408352463 264.5 L2134 264.5" fill="#fff">
  <animateTransform attributeName="transform" type="translate" dur="1.0752688172043012s" repeatCount="indefinite" keyTimes="0;0.5;1" calcMode="spline" keySplines="0.5 0 0.5 1;0.5 0 0.5 1" values="-22.327259150443297;0;-22.327259150443297" begin="-2.304147465437788s"></animateTransform>
</path><path d="M1218.005195103831 219.5 L1232.6175549399052 219.5 A22 22 0 0 1 1232.6175549399052 264.5 L1218.005195103831 264.5 A22 22 0 0 1 1218.005195103831 219.5" fill="#fff">
  <animateTransform attributeName="transform" type="translate" dur="1.6129032258064517s" repeatCount="indefinite" keyTimes="0;1" values="0;0" begin="-2.304147465437788s"></animateTransform>
  <animate attributeName="opacity" dur="1.6129032258064517s" repeatCount="indefinite" keyTimes="0;0.3;1" values="1;1;0" begin="-2.304147465437788s"></animate>
</path><path d="M2134 263.5 L1430.668486155091 263.5 A22 22 0 0 1 1430.668486155091 308.5 L2134 308.5" fill="#fff">
  <animateTransform attributeName="transform" type="translate" dur="3.2258064516129035s" repeatCount="indefinite" keyTimes="0;0.5;1" calcMode="spline" keySplines="0.5 0 0.5 1;0.5 0 0.5 1" values="18.1596379155177;0;18.1596379155177" begin="-2.7649769585253456s"></animateTransform>
</path><path d="M1903.2173323049776 263.5 L1928.4346646099552 263.5 A22 22 0 0 1 1928.4346646099552 308.5 L1903.2173323049776 308.5 A22 22 0 0 1 1903.2173323049776 263.5" fill="#000">
  <animateTransform attributeName="transform" type="translate" dur="3.2258064516129035s" repeatCount="indefinite" keyTimes="0;1" values="0;-864.6421060232997" begin="-2.7649769585253456s"></animateTransform>
  <animate attributeName="opacity" dur="3.2258064516129035s" repeatCount="indefinite" keyTimes="0;0.3;1" values="1;1;0" begin="-2.7649769585253456s"></animate>
</path><path d="M2134 307.5 L1091.6929381176444 307.5 A22 22 0 0 0 1091.6929381176444 352.5 L2134 352.5" fill="#fff">
  <animateTransform attributeName="transform" type="translate" dur="1.0752688172043012s" repeatCount="indefinite" keyTimes="0;0.5;1" calcMode="spline" keySplines="0.5 0 0.5 1;0.5 0 0.5 1" values="-17.098002685306135;0;-17.098002685306135" begin="-3.2258064516129035s"></animateTransform>
</path><path d="M1250.80378589838 307.5 L1276.5678568175877 307.5 A22 22 0 0 1 1276.5678568175877 352.5 L1250.80378589838 352.5 A22 22 0 0 1 1250.80378589838 307.5" fill="#fff">
  <animateTransform attributeName="transform" type="translate" dur="1.6129032258064517s" repeatCount="indefinite" keyTimes="0;1" values="0;0" begin="-3.2258064516129035s"></animateTransform>
  <animate attributeName="opacity" dur="1.6129032258064517s" repeatCount="indefinite" keyTimes="0;0.3;1" values="1;1;0" begin="-3.2258064516129035s"></animate>
</path><path d="M2134 351.5 L1260.176393975619 351.5 A22 22 0 0 1 1260.176393975619 396.5 L2134 396.5" fill="#fff">
  <animateTransform attributeName="transform" type="translate" dur="3.2258064516129035s" repeatCount="indefinite" keyTimes="0;0.5;1" calcMode="spline" keySplines="0.5 0 0.5 1;0.5 0 0.5 1" values="22.934744211575048;0;22.934744211575048" begin="-3.686635944700461s"></animateTransform>
</path><path d="M1917.4571831464978 351.5 L1956.9143662929955 351.5 A22 22 0 0 1 1956.9143662929955 396.5 L1917.4571831464978 396.5 A22 22 0 0 1 1917.4571831464978 351.5" fill="#000">
  <animateTransform attributeName="transform" type="translate" dur="3.2258064516129035s" repeatCount="indefinite" keyTimes="0;1" values="0;-1165.536408493997" begin="-3.686635944700461s"></animateTransform>
  <animate attributeName="opacity" dur="3.2258064516129035s" repeatCount="indefinite" keyTimes="0;0.3;1" values="1;1;0" begin="-3.686635944700461s"></animate>
</path><path d="M2134 395.5 L1152.0480811748885 395.5 A22 22 0 0 0 1152.0480811748885 440.5 L2134 440.5" fill="#fff">
  <animateTransform attributeName="transform" type="translate" dur="3.2258064516129035s" repeatCount="indefinite" keyTimes="0;0.5;1" calcMode="spline" keySplines="0.5 0 0.5 1;0.5 0 0.5 1" values="-21.201327025453924;0;-21.201327025453924" begin="-4.147465437788019s"></animateTransform>
</path><path d="M1254.6428957610706 395.5 L1286.4367608639084 395.5 A22 22 0 0 1 1286.4367608639084 440.5 L1254.6428957610706 440.5 A22 22 0 0 1 1254.6428957610706 395.5" fill="#fff">
  <animateTransform attributeName="transform" type="translate" dur="1.0752688172043012s" repeatCount="indefinite" keyTimes="0;1" values="0;0" begin="-4.147465437788019s"></animateTransform>
  <animate attributeName="opacity" dur="1.0752688172043012s" repeatCount="indefinite" keyTimes="0;0.3;1" values="1;1;0" begin="-4.147465437788019s"></animate>
</path><path d="M2134 439.5 L1437.7530281730037 439.5 A22 22 0 0 1 1437.7530281730037 484.5 L2134 484.5" fill="#fff">
  <animateTransform attributeName="transform" type="translate" dur="1.6129032258064517s" repeatCount="indefinite" keyTimes="0;0.5;1" calcMode="spline" keySplines="0.5 0 0.5 1;0.5 0 0.5 1" values="18.414179716828365;0;18.414179716828365" begin="-4.608294930875576s"></animateTransform>
</path><path d="M1899.7454859966483 439.5 L1921.4909719932966 439.5 A22 22 0 0 1 1921.4909719932966 484.5 L1899.7454859966483 484.5 A22 22 0 0 1 1899.7454859966483 439.5" fill="#000">
  <animateTransform attributeName="transform" type="translate" dur="1.6129032258064517s" repeatCount="indefinite" keyTimes="0;1" values="0;-831.4140842592537" begin="-4.608294930875576s"></animateTransform>
  <animate attributeName="opacity" dur="1.6129032258064517s" repeatCount="indefinite" keyTimes="0;0.3;1" values="1;1;0" begin="-4.608294930875576s"></animate>
</path><path d="M2134 483.5 L1124.8349068034806 483.5 A22 22 0 0 0 1124.8349068034806 528.5 L2134 528.5" fill="#fff">
  <animateTransform attributeName="transform" type="translate" dur="1.0752688172043012s" repeatCount="indefinite" keyTimes="0;0.5;1" calcMode="spline" keySplines="0.5 0 0.5 1;0.5 0 0.5 1" values="-19.700043167572318;0;-19.700043167572318" begin="-5.069124423963134s"></animateTransform>
</path><path d="M1255.955544581304 483.5 L1268.8721120051118 483.5 A22 22 0 0 1 1268.8721120051118 528.5 L1255.955544581304 528.5 A22 22 0 0 1 1255.955544581304 483.5" fill="#fff">
  <animateTransform attributeName="transform" type="translate" dur="1.0752688172043012s" repeatCount="indefinite" keyTimes="0;1" values="0;0" begin="-5.069124423963134s"></animateTransform>
  <animate attributeName="opacity" dur="1.0752688172043012s" repeatCount="indefinite" keyTimes="0;0.3;1" values="1;1;0" begin="-5.069124423963134s"></animate>
</path><path d="M2134 527.5 L1433.331171964692 527.5 A22 22 0 0 1 1433.331171964692 572.5 L2134 572.5" fill="#fff">
  <animateTransform attributeName="transform" type="translate" dur="1.0752688172043012s" repeatCount="indefinite" keyTimes="0;0.5;1" calcMode="spline" keySplines="0.5 0 0.5 1;0.5 0 0.5 1" values="15.549476429016025;0;15.549476429016025" begin="-5.529953917050691s"></animateTransform>
</path><path d="M1913.0812220881794 527.5 L1948.1624441763588 527.5 A22 22 0 0 1 1948.1624441763588 572.5 L1913.0812220881794 572.5 A22 22 0 0 1 1913.0812220881794 527.5" fill="#000">
  <animateTransform attributeName="transform" type="translate" dur="1.6129032258064517s" repeatCount="indefinite" keyTimes="0;1" values="0;-1221.7498240426473" begin="-5.529953917050691s"></animateTransform>
  <animate attributeName="opacity" dur="1.6129032258064517s" repeatCount="indefinite" keyTimes="0;0.3;1" values="1;1;0" begin="-5.529953917050691s"></animate>
</path><path d="M2134 571.5 L1113.8476837740209 571.5 A22 22 0 0 0 1113.8476837740209 616.5 L2134 616.5" fill="#fff">
  <animateTransform attributeName="transform" type="translate" dur="3.2258064516129035s" repeatCount="indefinite" keyTimes="0;0.5;1" calcMode="spline" keySplines="0.5 0 0.5 1;0.5 0 0.5 1" values="-24.279722078827298;0;-24.279722078827298" begin="-5.990783410138249s"></animateTransform>
</path><path d="M1182.2767270320164 571.5 L1215.6114840487048 571.5 A22 22 0 0 1 1215.6114840487048 616.5 L1182.2767270320164 616.5 A22 22 0 0 1 1182.2767270320164 571.5" fill="#fff">
  <animateTransform attributeName="transform" type="translate" dur="3.2258064516129035s" repeatCount="indefinite" keyTimes="0;1" values="0;0" begin="-5.990783410138249s"></animateTransform>
  <animate attributeName="opacity" dur="3.2258064516129035s" repeatCount="indefinite" keyTimes="0;0.3;1" values="1;1;0" begin="-5.990783410138249s"></animate>
</path><path d="M2134 615.5 L1450.9557490370696 615.5 A22 22 0 0 1 1450.9557490370696 660.5 L2134 660.5" fill="#fff">
  <animateTransform attributeName="transform" type="translate" dur="1.0752688172043012s" repeatCount="indefinite" keyTimes="0;0.5;1" calcMode="spline" keySplines="0.5 0 0.5 1;0.5 0 0.5 1" values="13.883627756827114;0;13.883627756827114" begin="-6.451612903225807s"></animateTransform>
</path><path d="M1910.6571775851664 615.5 L1943.3143551703329 615.5 A22 22 0 0 1 1943.3143551703329 660.5 L1910.6571775851664 660.5 A22 22 0 0 1 1910.6571775851664 615.5" fill="#000">
  <animateTransform attributeName="transform" type="translate" dur="1.6129032258064517s" repeatCount="indefinite" keyTimes="0;1" values="0;-974.4227540066966" begin="-6.451612903225807s"></animateTransform>
  <animate attributeName="opacity" dur="1.6129032258064517s" repeatCount="indefinite" keyTimes="0;0.3;1" values="1;1;0" begin="-6.451612903225807s"></animate>
</path><path d="M2134 659.5 L1208.256398777301 659.5 A22 22 0 0 0 1208.256398777301 704.5 L2134 704.5" fill="#fff">
  <animateTransform attributeName="transform" type="translate" dur="1.6129032258064517s" repeatCount="indefinite" keyTimes="0;0.5;1" calcMode="spline" keySplines="0.5 0 0.5 1;0.5 0 0.5 1" values="-21.207420258470673;0;-21.207420258470673" begin="-6.912442396313365s"></animateTransform>
</path><path d="M1310.295485147634 659.5 L1320.8275219977306 659.5 A22 22 0 0 1 1320.8275219977306 704.5 L1310.295485147634 704.5 A22 22 0 0 1 1310.295485147634 659.5" fill="#fff">
  <animateTransform attributeName="transform" type="translate" dur="1.6129032258064517s" repeatCount="indefinite" keyTimes="0;1" values="0;0" begin="-6.912442396313365s"></animateTransform>
  <animate attributeName="opacity" dur="1.6129032258064517s" repeatCount="indefinite" keyTimes="0;0.3;1" values="1;1;0" begin="-6.912442396313365s"></animate>
</path><path d="M2134 703.5 L1402.752295672361 703.5 A22 22 0 0 1 1402.752295672361 748.5 L2134 748.5" fill="#fff">
  <animateTransform attributeName="transform" type="translate" dur="1.0752688172043012s" repeatCount="indefinite" keyTimes="0;0.5;1" calcMode="spline" keySplines="0.5 0 0.5 1;0.5 0 0.5 1" values="25.23434195568261;0;25.23434195568261" begin="-7.373271889400922s"></animateTransform>
</path><path d="M1889.253010905169 703.5 L1900.506021810338 703.5 A22 22 0 0 1 1900.506021810338 748.5 L1889.253010905169 748.5 A22 22 0 0 1 1889.253010905169 703.5" fill="#000">
  <animateTransform attributeName="transform" type="translate" dur="1.0752688172043012s" repeatCount="indefinite" keyTimes="0;1" values="0;-1152.7374626859482" begin="-7.373271889400922s"></animateTransform>
  <animate attributeName="opacity" dur="1.0752688172043012s" repeatCount="indefinite" keyTimes="0;0.3;1" values="1;1;0" begin="-7.373271889400922s"></animate>
</path><path d="M2134 747.5 L1147.7828142907538 747.5 A22 22 0 0 0 1147.7828142907538 792.5 L2134 792.5" fill="#fff">
  <animateTransform attributeName="transform" type="translate" dur="1.6129032258064517s" repeatCount="indefinite" keyTimes="0;0.5;1" calcMode="spline" keySplines="0.5 0 0.5 1;0.5 0 0.5 1" values="-20.51943229846413;0;-20.51943229846413" begin="-7.83410138248848s"></animateTransform>
</path><path d="M1235.1142396170844 747.5 L1269.699424141021 747.5 A22 22 0 0 1 1269.699424141021 792.5 L1235.1142396170844 792.5 A22 22 0 0 1 1235.1142396170844 747.5" fill="#fff">
  <animateTransform attributeName="transform" type="translate" dur="3.2258064516129035s" repeatCount="indefinite" keyTimes="0;1" values="0;0" begin="-7.83410138248848s"></animateTransform>
  <animate attributeName="opacity" dur="3.2258064516129035s" repeatCount="indefinite" keyTimes="0;0.3;1" values="1;1;0" begin="-7.83410138248848s"></animate>
</path><path d="M2134 791.5 L1352.9237931884898 791.5 A22 22 0 0 1 1352.9237931884898 836.5 L2134 836.5" fill="#fff">
  <animateTransform attributeName="transform" type="translate" dur="1.6129032258064517s" repeatCount="indefinite" keyTimes="0;0.5;1" calcMode="spline" keySplines="0.5 0 0.5 1;0.5 0 0.5 1" values="22.845350500294007;0;22.845350500294007" begin="-8.294930875576037s"></animateTransform>
</path><path d="M1907.0447512640303 791.5 L1936.0895025280606 791.5 A22 22 0 0 1 1936.0895025280606 836.5 L1907.0447512640303 836.5 A22 22 0 0 1 1907.0447512640303 791.5" fill="#000">
  <animateTransform attributeName="transform" type="translate" dur="3.2258064516129035s" repeatCount="indefinite" keyTimes="0;1" values="0;-1352.0426153077797" begin="-8.294930875576037s"></animateTransform>
  <animate attributeName="opacity" dur="3.2258064516129035s" repeatCount="indefinite" keyTimes="0;0.3;1" values="1;1;0" begin="-8.294930875576037s"></animate>
</path><path d="M2134 835.5 L1260.8731689294452 835.5 A22 22 0 0 0 1260.8731689294452 880.5 L2134 880.5" fill="#fff">
  <animateTransform attributeName="transform" type="translate" dur="3.2258064516129035s" repeatCount="indefinite" keyTimes="0;0.5;1" calcMode="spline" keySplines="0.5 0 0.5 1;0.5 0 0.5 1" values="-20.35451151246074;0;-20.35451151246074" begin="-8.755760368663596s"></animateTransform>
</path><path d="M1339.2209748077553 835.5 L1357.7424795719494 835.5 A22 22 0 0 1 1357.7424795719494 880.5 L1339.2209748077553 880.5 A22 22 0 0 1 1339.2209748077553 835.5" fill="#fff">
  <animateTransform attributeName="transform" type="translate" dur="1.0752688172043012s" repeatCount="indefinite" keyTimes="0;1" values="0;0" begin="-8.755760368663596s"></animateTransform>
  <animate attributeName="opacity" dur="1.0752688172043012s" repeatCount="indefinite" keyTimes="0;0.3;1" values="1;1;0" begin="-8.755760368663596s"></animate>
</path><path d="M2134 879.5 L1492.373240509289 879.5 A22 22 0 0 1 1492.373240509289 924.5 L2134 924.5" fill="#fff">
  <animateTransform attributeName="transform" type="translate" dur="1.0752688172043012s" repeatCount="indefinite" keyTimes="0;0.5;1" calcMode="spline" keySplines="0.5 0 0.5 1;0.5 0 0.5 1" values="24.04397547767428;0;24.04397547767428" begin="-9.216589861751151s"></animateTransform>
</path><path d="M1916.081828413024 879.5 L1954.1636568260478 879.5 A22 22 0 0 1 1954.1636568260478 924.5 L1916.081828413024 924.5 A22 22 0 0 1 1916.081828413024 879.5" fill="#000">
  <animateTransform attributeName="transform" type="translate" dur="3.2258064516129035s" repeatCount="indefinite" keyTimes="0;1" values="0;-1103.5177396351523" begin="-9.216589861751151s"></animateTransform>
  <animate attributeName="opacity" dur="3.2258064516129035s" repeatCount="indefinite" keyTimes="0;0.3;1" values="1;1;0" begin="-9.216589861751151s"></animate>
</path>    </g>
  </mask>
</defs>
<rect x="0" y="0" width="1834" height="924" fill="url(#ldbk-photon-vnzxgh3zss-lg)" mask="url(#ldbk-photon-vnzxgh3zss-mask)"></rect></g>
</svg>