<svg xmlns="http://www.w3.org/2000/svg" xmlns:xlink="http://www.w3.org/1999/xlink" style="margin:auto;background:transparent;display:block;z-index:1;position:relative" width="1707" height="867" preserveAspectRatio="xMidYMid" viewBox="0 0 1707 867">
<g transform="translate(853.5,433.5) scale(1,1) translate(-853.5,-433.5)"><g transform="translate(-100 246.22072276138752) rotate(0)">
  <animateTransform attributeName="transform" type="translate" keyTimes="0;1" values="-100 246.22072276138752;1707 246.22072276138752" dur="333.3333333333333s" repeatCount="indefinite" begin="-84.2307244220118s"></animateTransform>
  <path d="M84.717,33.597c0.791-2.503,1.186-5.138,1.186-7.773C85.903,11.594,74.308,0,60.079,0 c-9.881,0-18.445,5.534-22.793,13.702c-1.581-0.527-3.426-0.791-5.138-0.791c-9.486,0-17.128,7.642-17.128,17.128 c0,1.186,0.132,2.372,0.395,3.426C6.719,34.783,0,42.424,0,51.515C0,61.66,8.169,69.829,18.314,69.829h63.373 C91.831,69.829,100,61.66,100,51.515C99.868,42.556,93.281,35.046,84.717,33.597z" fill="#80aaf3" transform="scale(0.55)"></path>
</g><g transform="translate(-100 534.2671454985787) rotate(0)">
  <animateTransform attributeName="transform" type="translate" keyTimes="0;1" values="-100 534.2671454985787;1707 534.2671454985787" dur="333.3333333333333s" repeatCount="indefinite" begin="-116.46977666087095s"></animateTransform>
  <path d="M84.717,33.597c0.791-2.503,1.186-5.138,1.186-7.773C85.903,11.594,74.308,0,60.079,0 c-9.881,0-18.445,5.534-22.793,13.702c-1.581-0.527-3.426-0.791-5.138-0.791c-9.486,0-17.128,7.642-17.128,17.128 c0,1.186,0.132,2.372,0.395,3.426C6.719,34.783,0,42.424,0,51.515C0,61.66,8.169,69.829,18.314,69.829h63.373 C91.831,69.829,100,61.66,100,51.515C99.868,42.556,93.281,35.046,84.717,33.597z" fill="#80aaf3" transform="scale(0.55)"></path>
</g><g transform="translate(-100 826.3047883551748) rotate(0)">
  <animateTransform attributeName="transform" type="translate" keyTimes="0;1" values="-100 826.3047883551748;1707 826.3047883551748" dur="333.3333333333333s" repeatCount="indefinite" begin="-77.25918983523772s"></animateTransform>
  <path d="M84.717,33.597c0.791-2.503,1.186-5.138,1.186-7.773C85.903,11.594,74.308,0,60.079,0 c-9.881,0-18.445,5.534-22.793,13.702c-1.581-0.527-3.426-0.791-5.138-0.791c-9.486,0-17.128,7.642-17.128,17.128 c0,1.186,0.132,2.372,0.395,3.426C6.719,34.783,0,42.424,0,51.515C0,61.66,8.169,69.829,18.314,69.829h63.373 C91.831,69.829,100,61.66,100,51.515C99.868,42.556,93.281,35.046,84.717,33.597z" fill="#80aaf3" transform="scale(0.55)"></path>
</g><g transform="translate(-100 58.55115791902438) rotate(0)">
  <animateTransform attributeName="transform" type="translate" keyTimes="0;1" values="-100 58.55115791902438;1707 58.55115791902438" dur="333.3333333333333s" repeatCount="indefinite" begin="-228.31411677921693s"></animateTransform>
  <path d="M84.717,33.597c0.791-2.503,1.186-5.138,1.186-7.773C85.903,11.594,74.308,0,60.079,0 c-9.881,0-18.445,5.534-22.793,13.702c-1.581-0.527-3.426-0.791-5.138-0.791c-9.486,0-17.128,7.642-17.128,17.128 c0,1.186,0.132,2.372,0.395,3.426C6.719,34.783,0,42.424,0,51.515C0,61.66,8.169,69.829,18.314,69.829h63.373 C91.831,69.829,100,61.66,100,51.515C99.868,42.556,93.281,35.046,84.717,33.597z" fill="#80aaf3" transform="scale(0.55)"></path>
</g><g transform="translate(-100 77.08216258307922) rotate(0)">
  <animateTransform attributeName="transform" type="translate" keyTimes="0;1" values="-100 77.08216258307922;1707 77.08216258307922" dur="333.3333333333333s" repeatCount="indefinite" begin="-195.7493078593299s"></animateTransform>
  <path d="M84.717,33.597c0.791-2.503,1.186-5.138,1.186-7.773C85.903,11.594,74.308,0,60.079,0 c-9.881,0-18.445,5.534-22.793,13.702c-1.581-0.527-3.426-0.791-5.138-0.791c-9.486,0-17.128,7.642-17.128,17.128 c0,1.186,0.132,2.372,0.395,3.426C6.719,34.783,0,42.424,0,51.515C0,61.66,8.169,69.829,18.314,69.829h63.373 C91.831,69.829,100,61.66,100,51.515C99.868,42.556,93.281,35.046,84.717,33.597z" fill="#80aaf3" transform="scale(0.55)"></path>
</g><g transform="translate(-100 86.13396547089249) rotate(0)">
  <animateTransform attributeName="transform" type="translate" keyTimes="0;1" values="-100 86.13396547089249;1707 86.13396547089249" dur="333.3333333333333s" repeatCount="indefinite" begin="-265.1491934294099s"></animateTransform>
  <path d="M84.717,33.597c0.791-2.503,1.186-5.138,1.186-7.773C85.903,11.594,74.308,0,60.079,0 c-9.881,0-18.445,5.534-22.793,13.702c-1.581-0.527-3.426-0.791-5.138-0.791c-9.486,0-17.128,7.642-17.128,17.128 c0,1.186,0.132,2.372,0.395,3.426C6.719,34.783,0,42.424,0,51.515C0,61.66,8.169,69.829,18.314,69.829h63.373 C91.831,69.829,100,61.66,100,51.515C99.868,42.556,93.281,35.046,84.717,33.597z" fill="#80aaf3" transform="scale(0.55)"></path>
</g><g transform="translate(-100 332.2770715224821) rotate(0)">
  <animateTransform attributeName="transform" type="translate" keyTimes="0;1" values="-100 332.2770715224821;1707 332.2770715224821" dur="333.3333333333333s" repeatCount="indefinite" begin="-322.117343017537s"></animateTransform>
  <path d="M84.717,33.597c0.791-2.503,1.186-5.138,1.186-7.773C85.903,11.594,74.308,0,60.079,0 c-9.881,0-18.445,5.534-22.793,13.702c-1.581-0.527-3.426-0.791-5.138-0.791c-9.486,0-17.128,7.642-17.128,17.128 c0,1.186,0.132,2.372,0.395,3.426C6.719,34.783,0,42.424,0,51.515C0,61.66,8.169,69.829,18.314,69.829h63.373 C91.831,69.829,100,61.66,100,51.515C99.868,42.556,93.281,35.046,84.717,33.597z" fill="#80aaf3" transform="scale(0.55)"></path>
</g><g transform="translate(-100 475.46648701088765) rotate(0)">
  <animateTransform attributeName="transform" type="translate" keyTimes="0;1" values="-100 475.46648701088765;1707 475.46648701088765" dur="333.3333333333333s" repeatCount="indefinite" begin="-98.11789643964289s"></animateTransform>
  <path d="M84.717,33.597c0.791-2.503,1.186-5.138,1.186-7.773C85.903,11.594,74.308,0,60.079,0 c-9.881,0-18.445,5.534-22.793,13.702c-1.581-0.527-3.426-0.791-5.138-0.791c-9.486,0-17.128,7.642-17.128,17.128 c0,1.186,0.132,2.372,0.395,3.426C6.719,34.783,0,42.424,0,51.515C0,61.66,8.169,69.829,18.314,69.829h63.373 C91.831,69.829,100,61.66,100,51.515C99.868,42.556,93.281,35.046,84.717,33.597z" fill="#80aaf3" transform="scale(0.55)"></path>
</g><g transform="translate(-100 639.2428113393868) rotate(0)">
  <animateTransform attributeName="transform" type="translate" keyTimes="0;1" values="-100 639.2428113393868;1707 639.2428113393868" dur="333.3333333333333s" repeatCount="indefinite" begin="-186.56035014018008s"></animateTransform>
  <path d="M84.717,33.597c0.791-2.503,1.186-5.138,1.186-7.773C85.903,11.594,74.308,0,60.079,0 c-9.881,0-18.445,5.534-22.793,13.702c-1.581-0.527-3.426-0.791-5.138-0.791c-9.486,0-17.128,7.642-17.128,17.128 c0,1.186,0.132,2.372,0.395,3.426C6.719,34.783,0,42.424,0,51.515C0,61.66,8.169,69.829,18.314,69.829h63.373 C91.831,69.829,100,61.66,100,51.515C99.868,42.556,93.281,35.046,84.717,33.597z" fill="#80aaf3" transform="scale(0.55)"></path>
</g><g transform="translate(-100 693.3509991707987) rotate(0)">
  <animateTransform attributeName="transform" type="translate" keyTimes="0;1" values="-100 693.3509991707987;1707 693.3509991707987" dur="333.3333333333333s" repeatCount="indefinite" begin="-100.83335238145115s"></animateTransform>
  <path d="M84.717,33.597c0.791-2.503,1.186-5.138,1.186-7.773C85.903,11.594,74.308,0,60.079,0 c-9.881,0-18.445,5.534-22.793,13.702c-1.581-0.527-3.426-0.791-5.138-0.791c-9.486,0-17.128,7.642-17.128,17.128 c0,1.186,0.132,2.372,0.395,3.426C6.719,34.783,0,42.424,0,51.515C0,61.66,8.169,69.829,18.314,69.829h63.373 C91.831,69.829,100,61.66,100,51.515C99.868,42.556,93.281,35.046,84.717,33.597z" fill="#80aaf3" transform="scale(0.55)"></path>
</g><g transform="translate(-100 626.6596939093095) rotate(0)">
  <animateTransform attributeName="transform" type="translate" keyTimes="0;1" values="-100 626.6596939093095;1707 626.6596939093095" dur="333.3333333333333s" repeatCount="indefinite" begin="-127.64943698930597s"></animateTransform>
  <path d="M84.717,33.597c0.791-2.503,1.186-5.138,1.186-7.773C85.903,11.594,74.308,0,60.079,0 c-9.881,0-18.445,5.534-22.793,13.702c-1.581-0.527-3.426-0.791-5.138-0.791c-9.486,0-17.128,7.642-17.128,17.128 c0,1.186,0.132,2.372,0.395,3.426C6.719,34.783,0,42.424,0,51.515C0,61.66,8.169,69.829,18.314,69.829h63.373 C91.831,69.829,100,61.66,100,51.515C99.868,42.556,93.281,35.046,84.717,33.597z" fill="#80aaf3" transform="scale(0.55)"></path>
</g><g transform="translate(-100 279.07303676151804) rotate(0)">
  <animateTransform attributeName="transform" type="translate" keyTimes="0;1" values="-100 279.07303676151804;1707 279.07303676151804" dur="166.66666666666666s" repeatCount="indefinite" begin="-146.07785378151962s"></animateTransform>
  <path d="M84.717,33.597c0.791-2.503,1.186-5.138,1.186-7.773C85.903,11.594,74.308,0,60.079,0 c-9.881,0-18.445,5.534-22.793,13.702c-1.581-0.527-3.426-0.791-5.138-0.791c-9.486,0-17.128,7.642-17.128,17.128 c0,1.186,0.132,2.372,0.395,3.426C6.719,34.783,0,42.424,0,51.515C0,61.66,8.169,69.829,18.314,69.829h63.373 C91.831,69.829,100,61.66,100,51.515C99.868,42.556,93.281,35.046,84.717,33.597z" fill="#f7faf8" transform="scale(0.7)"></path>
</g><g transform="translate(-100 86.54060888696098) rotate(0)">
  <animateTransform attributeName="transform" type="translate" keyTimes="0;1" values="-100 86.54060888696098;1707 86.54060888696098" dur="166.66666666666666s" repeatCount="indefinite" begin="-313.35035454622755s"></animateTransform>
  <path d="M84.717,33.597c0.791-2.503,1.186-5.138,1.186-7.773C85.903,11.594,74.308,0,60.079,0 c-9.881,0-18.445,5.534-22.793,13.702c-1.581-0.527-3.426-0.791-5.138-0.791c-9.486,0-17.128,7.642-17.128,17.128 c0,1.186,0.132,2.372,0.395,3.426C6.719,34.783,0,42.424,0,51.515C0,61.66,8.169,69.829,18.314,69.829h63.373 C91.831,69.829,100,61.66,100,51.515C99.868,42.556,93.281,35.046,84.717,33.597z" fill="#f7faf8" transform="scale(0.7)"></path>
</g><g transform="translate(-100 485.86258614967863) rotate(0)">
  <animateTransform attributeName="transform" type="translate" keyTimes="0;1" values="-100 485.86258614967863;1707 485.86258614967863" dur="166.66666666666666s" repeatCount="indefinite" begin="-66.84286450419955s"></animateTransform>
  <path d="M84.717,33.597c0.791-2.503,1.186-5.138,1.186-7.773C85.903,11.594,74.308,0,60.079,0 c-9.881,0-18.445,5.534-22.793,13.702c-1.581-0.527-3.426-0.791-5.138-0.791c-9.486,0-17.128,7.642-17.128,17.128 c0,1.186,0.132,2.372,0.395,3.426C6.719,34.783,0,42.424,0,51.515C0,61.66,8.169,69.829,18.314,69.829h63.373 C91.831,69.829,100,61.66,100,51.515C99.868,42.556,93.281,35.046,84.717,33.597z" fill="#f7faf8" transform="scale(0.7)"></path>
</g><g transform="translate(-100 387.4582018483046) rotate(0)">
  <animateTransform attributeName="transform" type="translate" keyTimes="0;1" values="-100 387.4582018483046;1707 387.4582018483046" dur="166.66666666666666s" repeatCount="indefinite" begin="-214.96585570518144s"></animateTransform>
  <path d="M84.717,33.597c0.791-2.503,1.186-5.138,1.186-7.773C85.903,11.594,74.308,0,60.079,0 c-9.881,0-18.445,5.534-22.793,13.702c-1.581-0.527-3.426-0.791-5.138-0.791c-9.486,0-17.128,7.642-17.128,17.128 c0,1.186,0.132,2.372,0.395,3.426C6.719,34.783,0,42.424,0,51.515C0,61.66,8.169,69.829,18.314,69.829h63.373 C91.831,69.829,100,61.66,100,51.515C99.868,42.556,93.281,35.046,84.717,33.597z" fill="#f7faf8" transform="scale(0.7)"></path>
</g><g transform="translate(-100 846.2023633167054) rotate(0)">
  <animateTransform attributeName="transform" type="translate" keyTimes="0;1" values="-100 846.2023633167054;1707 846.2023633167054" dur="166.66666666666666s" repeatCount="indefinite" begin="-310.0878568811284s"></animateTransform>
  <path d="M84.717,33.597c0.791-2.503,1.186-5.138,1.186-7.773C85.903,11.594,74.308,0,60.079,0 c-9.881,0-18.445,5.534-22.793,13.702c-1.581-0.527-3.426-0.791-5.138-0.791c-9.486,0-17.128,7.642-17.128,17.128 c0,1.186,0.132,2.372,0.395,3.426C6.719,34.783,0,42.424,0,51.515C0,61.66,8.169,69.829,18.314,69.829h63.373 C91.831,69.829,100,61.66,100,51.515C99.868,42.556,93.281,35.046,84.717,33.597z" fill="#f7faf8" transform="scale(0.7)"></path>
</g><g transform="translate(-100 151.32984535715937) rotate(0)">
  <animateTransform attributeName="transform" type="translate" keyTimes="0;1" values="-100 151.32984535715937;1707 151.32984535715937" dur="166.66666666666666s" repeatCount="indefinite" begin="-104.83751679009116s"></animateTransform>
  <path d="M84.717,33.597c0.791-2.503,1.186-5.138,1.186-7.773C85.903,11.594,74.308,0,60.079,0 c-9.881,0-18.445,5.534-22.793,13.702c-1.581-0.527-3.426-0.791-5.138-0.791c-9.486,0-17.128,7.642-17.128,17.128 c0,1.186,0.132,2.372,0.395,3.426C6.719,34.783,0,42.424,0,51.515C0,61.66,8.169,69.829,18.314,69.829h63.373 C91.831,69.829,100,61.66,100,51.515C99.868,42.556,93.281,35.046,84.717,33.597z" fill="#f7faf8" transform="scale(0.7)"></path>
</g><g transform="translate(-100 690.6876841209089) rotate(0)">
  <animateTransform attributeName="transform" type="translate" keyTimes="0;1" values="-100 690.6876841209089;1707 690.6876841209089" dur="166.66666666666666s" repeatCount="indefinite" begin="-198.90147707688797s"></animateTransform>
  <path d="M84.717,33.597c0.791-2.503,1.186-5.138,1.186-7.773C85.903,11.594,74.308,0,60.079,0 c-9.881,0-18.445,5.534-22.793,13.702c-1.581-0.527-3.426-0.791-5.138-0.791c-9.486,0-17.128,7.642-17.128,17.128 c0,1.186,0.132,2.372,0.395,3.426C6.719,34.783,0,42.424,0,51.515C0,61.66,8.169,69.829,18.314,69.829h63.373 C91.831,69.829,100,61.66,100,51.515C99.868,42.556,93.281,35.046,84.717,33.597z" fill="#f7faf8" transform="scale(0.7)"></path>
</g><g transform="translate(-100 300.0932692459752) rotate(0)">
  <animateTransform attributeName="transform" type="translate" keyTimes="0;1" values="-100 300.0932692459752;1707 300.0932692459752" dur="166.66666666666666s" repeatCount="indefinite" begin="-329.8163811646922s"></animateTransform>
  <path d="M84.717,33.597c0.791-2.503,1.186-5.138,1.186-7.773C85.903,11.594,74.308,0,60.079,0 c-9.881,0-18.445,5.534-22.793,13.702c-1.581-0.527-3.426-0.791-5.138-0.791c-9.486,0-17.128,7.642-17.128,17.128 c0,1.186,0.132,2.372,0.395,3.426C6.719,34.783,0,42.424,0,51.515C0,61.66,8.169,69.829,18.314,69.829h63.373 C91.831,69.829,100,61.66,100,51.515C99.868,42.556,93.281,35.046,84.717,33.597z" fill="#f7faf8" transform="scale(0.7)"></path>
</g><g transform="translate(-100 486.504774402591) rotate(0)">
  <animateTransform attributeName="transform" type="translate" keyTimes="0;1" values="-100 486.504774402591;1707 486.504774402591" dur="166.66666666666666s" repeatCount="indefinite" begin="-216.00066747572887s"></animateTransform>
  <path d="M84.717,33.597c0.791-2.503,1.186-5.138,1.186-7.773C85.903,11.594,74.308,0,60.079,0 c-9.881,0-18.445,5.534-22.793,13.702c-1.581-0.527-3.426-0.791-5.138-0.791c-9.486,0-17.128,7.642-17.128,17.128 c0,1.186,0.132,2.372,0.395,3.426C6.719,34.783,0,42.424,0,51.515C0,61.66,8.169,69.829,18.314,69.829h63.373 C91.831,69.829,100,61.66,100,51.515C99.868,42.556,93.281,35.046,84.717,33.597z" fill="#f7faf8" transform="scale(0.7)"></path>
</g><g transform="translate(-100 123.29583123895802) rotate(0)">
  <animateTransform attributeName="transform" type="translate" keyTimes="0;1" values="-100 123.29583123895802;1707 123.29583123895802" dur="166.66666666666666s" repeatCount="indefinite" begin="-3.3046156764185612s"></animateTransform>
  <path d="M84.717,33.597c0.791-2.503,1.186-5.138,1.186-7.773C85.903,11.594,74.308,0,60.079,0 c-9.881,0-18.445,5.534-22.793,13.702c-1.581-0.527-3.426-0.791-5.138-0.791c-9.486,0-17.128,7.642-17.128,17.128 c0,1.186,0.132,2.372,0.395,3.426C6.719,34.783,0,42.424,0,51.515C0,61.66,8.169,69.829,18.314,69.829h63.373 C91.831,69.829,100,61.66,100,51.515C99.868,42.556,93.281,35.046,84.717,33.597z" fill="#f7faf8" transform="scale(0.7)"></path>
</g><g transform="translate(-100 743.6652267173566) rotate(0)">
  <animateTransform attributeName="transform" type="translate" keyTimes="0;1" values="-100 743.6652267173566;1707 743.6652267173566" dur="166.66666666666666s" repeatCount="indefinite" begin="-41.14625751610538s"></animateTransform>
  <path d="M84.717,33.597c0.791-2.503,1.186-5.138,1.186-7.773C85.903,11.594,74.308,0,60.079,0 c-9.881,0-18.445,5.534-22.793,13.702c-1.581-0.527-3.426-0.791-5.138-0.791c-9.486,0-17.128,7.642-17.128,17.128 c0,1.186,0.132,2.372,0.395,3.426C6.719,34.783,0,42.424,0,51.515C0,61.66,8.169,69.829,18.314,69.829h63.373 C91.831,69.829,100,61.66,100,51.515C99.868,42.556,93.281,35.046,84.717,33.597z" fill="#f7faf8" transform="scale(0.7)"></path>
</g><g transform="translate(-100 220.26050407005496) rotate(0)">
  <animateTransform attributeName="transform" type="translate" keyTimes="0;1" values="-100 220.26050407005496;1707 220.26050407005496" dur="111.1111111111111s" repeatCount="indefinite" begin="-1.2860328773622864s"></animateTransform>
  <path d="M84.717,33.597c0.791-2.503,1.186-5.138,1.186-7.773C85.903,11.594,74.308,0,60.079,0 c-9.881,0-18.445,5.534-22.793,13.702c-1.581-0.527-3.426-0.791-5.138-0.791c-9.486,0-17.128,7.642-17.128,17.128 c0,1.186,0.132,2.372,0.395,3.426C6.719,34.783,0,42.424,0,51.515C0,61.66,8.169,69.829,18.314,69.829h63.373 C91.831,69.829,100,61.66,100,51.515C99.868,42.556,93.281,35.046,84.717,33.597z" fill="#4c5630" transform="scale(0.85)"></path>
</g><g transform="translate(-100 123.60152036435835) rotate(0)">
  <animateTransform attributeName="transform" type="translate" keyTimes="0;1" values="-100 123.60152036435835;1707 123.60152036435835" dur="111.1111111111111s" repeatCount="indefinite" begin="-191.66365403968794s"></animateTransform>
  <path d="M84.717,33.597c0.791-2.503,1.186-5.138,1.186-7.773C85.903,11.594,74.308,0,60.079,0 c-9.881,0-18.445,5.534-22.793,13.702c-1.581-0.527-3.426-0.791-5.138-0.791c-9.486,0-17.128,7.642-17.128,17.128 c0,1.186,0.132,2.372,0.395,3.426C6.719,34.783,0,42.424,0,51.515C0,61.66,8.169,69.829,18.314,69.829h63.373 C91.831,69.829,100,61.66,100,51.515C99.868,42.556,93.281,35.046,84.717,33.597z" fill="#4c5630" transform="scale(0.85)"></path>
</g><g transform="translate(-100 523.9504821175332) rotate(0)">
  <animateTransform attributeName="transform" type="translate" keyTimes="0;1" values="-100 523.9504821175332;1707 523.9504821175332" dur="111.1111111111111s" repeatCount="indefinite" begin="-238.84366623001455s"></animateTransform>
  <path d="M84.717,33.597c0.791-2.503,1.186-5.138,1.186-7.773C85.903,11.594,74.308,0,60.079,0 c-9.881,0-18.445,5.534-22.793,13.702c-1.581-0.527-3.426-0.791-5.138-0.791c-9.486,0-17.128,7.642-17.128,17.128 c0,1.186,0.132,2.372,0.395,3.426C6.719,34.783,0,42.424,0,51.515C0,61.66,8.169,69.829,18.314,69.829h63.373 C91.831,69.829,100,61.66,100,51.515C99.868,42.556,93.281,35.046,84.717,33.597z" fill="#4c5630" transform="scale(0.85)"></path>
</g><g transform="translate(-100 126.48250246311059) rotate(0)">
  <animateTransform attributeName="transform" type="translate" keyTimes="0;1" values="-100 126.48250246311059;1707 126.48250246311059" dur="111.1111111111111s" repeatCount="indefinite" begin="-264.72489099750106s"></animateTransform>
  <path d="M84.717,33.597c0.791-2.503,1.186-5.138,1.186-7.773C85.903,11.594,74.308,0,60.079,0 c-9.881,0-18.445,5.534-22.793,13.702c-1.581-0.527-3.426-0.791-5.138-0.791c-9.486,0-17.128,7.642-17.128,17.128 c0,1.186,0.132,2.372,0.395,3.426C6.719,34.783,0,42.424,0,51.515C0,61.66,8.169,69.829,18.314,69.829h63.373 C91.831,69.829,100,61.66,100,51.515C99.868,42.556,93.281,35.046,84.717,33.597z" fill="#4c5630" transform="scale(0.85)"></path>
</g><g transform="translate(-100 13.421998394409808) rotate(0)">
  <animateTransform attributeName="transform" type="translate" keyTimes="0;1" values="-100 13.421998394409808;1707 13.421998394409808" dur="111.1111111111111s" repeatCount="indefinite" begin="-37.03997414545227s"></animateTransform>
  <path d="M84.717,33.597c0.791-2.503,1.186-5.138,1.186-7.773C85.903,11.594,74.308,0,60.079,0 c-9.881,0-18.445,5.534-22.793,13.702c-1.581-0.527-3.426-0.791-5.138-0.791c-9.486,0-17.128,7.642-17.128,17.128 c0,1.186,0.132,2.372,0.395,3.426C6.719,34.783,0,42.424,0,51.515C0,61.66,8.169,69.829,18.314,69.829h63.373 C91.831,69.829,100,61.66,100,51.515C99.868,42.556,93.281,35.046,84.717,33.597z" fill="#4c5630" transform="scale(0.85)"></path>
</g><g transform="translate(-100 570.2179711562909) rotate(0)">
  <animateTransform attributeName="transform" type="translate" keyTimes="0;1" values="-100 570.2179711562909;1707 570.2179711562909" dur="111.1111111111111s" repeatCount="indefinite" begin="-261.77095480561053s"></animateTransform>
  <path d="M84.717,33.597c0.791-2.503,1.186-5.138,1.186-7.773C85.903,11.594,74.308,0,60.079,0 c-9.881,0-18.445,5.534-22.793,13.702c-1.581-0.527-3.426-0.791-5.138-0.791c-9.486,0-17.128,7.642-17.128,17.128 c0,1.186,0.132,2.372,0.395,3.426C6.719,34.783,0,42.424,0,51.515C0,61.66,8.169,69.829,18.314,69.829h63.373 C91.831,69.829,100,61.66,100,51.515C99.868,42.556,93.281,35.046,84.717,33.597z" fill="#4c5630" transform="scale(0.85)"></path>
</g><g transform="translate(-100 506.7221512435473) rotate(0)">
  <animateTransform attributeName="transform" type="translate" keyTimes="0;1" values="-100 506.7221512435473;1707 506.7221512435473" dur="111.1111111111111s" repeatCount="indefinite" begin="-282.7655138456234s"></animateTransform>
  <path d="M84.717,33.597c0.791-2.503,1.186-5.138,1.186-7.773C85.903,11.594,74.308,0,60.079,0 c-9.881,0-18.445,5.534-22.793,13.702c-1.581-0.527-3.426-0.791-5.138-0.791c-9.486,0-17.128,7.642-17.128,17.128 c0,1.186,0.132,2.372,0.395,3.426C6.719,34.783,0,42.424,0,51.515C0,61.66,8.169,69.829,18.314,69.829h63.373 C91.831,69.829,100,61.66,100,51.515C99.868,42.556,93.281,35.046,84.717,33.597z" fill="#4c5630" transform="scale(0.85)"></path>
</g><g transform="translate(-100 380.2617982719442) rotate(0)">
  <animateTransform attributeName="transform" type="translate" keyTimes="0;1" values="-100 380.2617982719442;1707 380.2617982719442" dur="111.1111111111111s" repeatCount="indefinite" begin="-93.42921778618677s"></animateTransform>
  <path d="M84.717,33.597c0.791-2.503,1.186-5.138,1.186-7.773C85.903,11.594,74.308,0,60.079,0 c-9.881,0-18.445,5.534-22.793,13.702c-1.581-0.527-3.426-0.791-5.138-0.791c-9.486,0-17.128,7.642-17.128,17.128 c0,1.186,0.132,2.372,0.395,3.426C6.719,34.783,0,42.424,0,51.515C0,61.66,8.169,69.829,18.314,69.829h63.373 C91.831,69.829,100,61.66,100,51.515C99.868,42.556,93.281,35.046,84.717,33.597z" fill="#4c5630" transform="scale(0.85)"></path>
</g><g transform="translate(-100 431.5724727845577) rotate(0)">
  <animateTransform attributeName="transform" type="translate" keyTimes="0;1" values="-100 431.5724727845577;1707 431.5724727845577" dur="111.1111111111111s" repeatCount="indefinite" begin="-275.9904895290477s"></animateTransform>
  <path d="M84.717,33.597c0.791-2.503,1.186-5.138,1.186-7.773C85.903,11.594,74.308,0,60.079,0 c-9.881,0-18.445,5.534-22.793,13.702c-1.581-0.527-3.426-0.791-5.138-0.791c-9.486,0-17.128,7.642-17.128,17.128 c0,1.186,0.132,2.372,0.395,3.426C6.719,34.783,0,42.424,0,51.515C0,61.66,8.169,69.829,18.314,69.829h63.373 C91.831,69.829,100,61.66,100,51.515C99.868,42.556,93.281,35.046,84.717,33.597z" fill="#4c5630" transform="scale(0.85)"></path>
</g><g transform="translate(-100 45.008273837515674) rotate(0)">
  <animateTransform attributeName="transform" type="translate" keyTimes="0;1" values="-100 45.008273837515674;1707 45.008273837515674" dur="111.1111111111111s" repeatCount="indefinite" begin="-232.06413504012133s"></animateTransform>
  <path d="M84.717,33.597c0.791-2.503,1.186-5.138,1.186-7.773C85.903,11.594,74.308,0,60.079,0 c-9.881,0-18.445,5.534-22.793,13.702c-1.581-0.527-3.426-0.791-5.138-0.791c-9.486,0-17.128,7.642-17.128,17.128 c0,1.186,0.132,2.372,0.395,3.426C6.719,34.783,0,42.424,0,51.515C0,61.66,8.169,69.829,18.314,69.829h63.373 C91.831,69.829,100,61.66,100,51.515C99.868,42.556,93.281,35.046,84.717,33.597z" fill="#4c5630" transform="scale(0.85)"></path>
</g><g transform="translate(-100 197.1093927256751) rotate(0)">
  <animateTransform attributeName="transform" type="translate" keyTimes="0;1" values="-100 197.1093927256751;1707 197.1093927256751" dur="111.1111111111111s" repeatCount="indefinite" begin="-14.040216032199218s"></animateTransform>
  <path d="M84.717,33.597c0.791-2.503,1.186-5.138,1.186-7.773C85.903,11.594,74.308,0,60.079,0 c-9.881,0-18.445,5.534-22.793,13.702c-1.581-0.527-3.426-0.791-5.138-0.791c-9.486,0-17.128,7.642-17.128,17.128 c0,1.186,0.132,2.372,0.395,3.426C6.719,34.783,0,42.424,0,51.515C0,61.66,8.169,69.829,18.314,69.829h63.373 C91.831,69.829,100,61.66,100,51.515C99.868,42.556,93.281,35.046,84.717,33.597z" fill="#4c5630" transform="scale(0.85)"></path>
</g><g transform="translate(-100 690.5336830362688) rotate(0)">
  <animateTransform attributeName="transform" type="translate" keyTimes="0;1" values="-100 690.5336830362688;1707 690.5336830362688" dur="83.33333333333333s" repeatCount="indefinite" begin="-227.19190655637476s"></animateTransform>
  <path d="M84.717,33.597c0.791-2.503,1.186-5.138,1.186-7.773C85.903,11.594,74.308,0,60.079,0 c-9.881,0-18.445,5.534-22.793,13.702c-1.581-0.527-3.426-0.791-5.138-0.791c-9.486,0-17.128,7.642-17.128,17.128 c0,1.186,0.132,2.372,0.395,3.426C6.719,34.783,0,42.424,0,51.515C0,61.66,8.169,69.829,18.314,69.829h63.373 C91.831,69.829,100,61.66,100,51.515C99.868,42.556,93.281,35.046,84.717,33.597z" fill="#b3c430" transform="scale(1)"></path>
</g><g transform="translate(-100 160.4931673954564) rotate(0)">
  <animateTransform attributeName="transform" type="translate" keyTimes="0;1" values="-100 160.4931673954564;1707 160.4931673954564" dur="83.33333333333333s" repeatCount="indefinite" begin="-327.34853020472303s"></animateTransform>
  <path d="M84.717,33.597c0.791-2.503,1.186-5.138,1.186-7.773C85.903,11.594,74.308,0,60.079,0 c-9.881,0-18.445,5.534-22.793,13.702c-1.581-0.527-3.426-0.791-5.138-0.791c-9.486,0-17.128,7.642-17.128,17.128 c0,1.186,0.132,2.372,0.395,3.426C6.719,34.783,0,42.424,0,51.515C0,61.66,8.169,69.829,18.314,69.829h63.373 C91.831,69.829,100,61.66,100,51.515C99.868,42.556,93.281,35.046,84.717,33.597z" fill="#b3c430" transform="scale(1)"></path>
</g><g transform="translate(-100 849.120287200051) rotate(0)">
  <animateTransform attributeName="transform" type="translate" keyTimes="0;1" values="-100 849.120287200051;1707 849.120287200051" dur="83.33333333333333s" repeatCount="indefinite" begin="-268.90181113462927s"></animateTransform>
  <path d="M84.717,33.597c0.791-2.503,1.186-5.138,1.186-7.773C85.903,11.594,74.308,0,60.079,0 c-9.881,0-18.445,5.534-22.793,13.702c-1.581-0.527-3.426-0.791-5.138-0.791c-9.486,0-17.128,7.642-17.128,17.128 c0,1.186,0.132,2.372,0.395,3.426C6.719,34.783,0,42.424,0,51.515C0,61.66,8.169,69.829,18.314,69.829h63.373 C91.831,69.829,100,61.66,100,51.515C99.868,42.556,93.281,35.046,84.717,33.597z" fill="#b3c430" transform="scale(1)"></path>
</g><g transform="translate(-100 354.04100416858006) rotate(0)">
  <animateTransform attributeName="transform" type="translate" keyTimes="0;1" values="-100 354.04100416858006;1707 354.04100416858006" dur="83.33333333333333s" repeatCount="indefinite" begin="-310.90898818100226s"></animateTransform>
  <path d="M84.717,33.597c0.791-2.503,1.186-5.138,1.186-7.773C85.903,11.594,74.308,0,60.079,0 c-9.881,0-18.445,5.534-22.793,13.702c-1.581-0.527-3.426-0.791-5.138-0.791c-9.486,0-17.128,7.642-17.128,17.128 c0,1.186,0.132,2.372,0.395,3.426C6.719,34.783,0,42.424,0,51.515C0,61.66,8.169,69.829,18.314,69.829h63.373 C91.831,69.829,100,61.66,100,51.515C99.868,42.556,93.281,35.046,84.717,33.597z" fill="#b3c430" transform="scale(1)"></path>
</g><g transform="translate(-100 605.568224737282) rotate(0)">
  <animateTransform attributeName="transform" type="translate" keyTimes="0;1" values="-100 605.568224737282;1707 605.568224737282" dur="83.33333333333333s" repeatCount="indefinite" begin="-83.32416271391754s"></animateTransform>
  <path d="M84.717,33.597c0.791-2.503,1.186-5.138,1.186-7.773C85.903,11.594,74.308,0,60.079,0 c-9.881,0-18.445,5.534-22.793,13.702c-1.581-0.527-3.426-0.791-5.138-0.791c-9.486,0-17.128,7.642-17.128,17.128 c0,1.186,0.132,2.372,0.395,3.426C6.719,34.783,0,42.424,0,51.515C0,61.66,8.169,69.829,18.314,69.829h63.373 C91.831,69.829,100,61.66,100,51.515C99.868,42.556,93.281,35.046,84.717,33.597z" fill="#b3c430" transform="scale(1)"></path>
</g><g transform="translate(-100 849.2941725692161) rotate(0)">
  <animateTransform attributeName="transform" type="translate" keyTimes="0;1" values="-100 849.2941725692161;1707 849.2941725692161" dur="83.33333333333333s" repeatCount="indefinite" begin="-159.89391313947462s"></animateTransform>
  <path d="M84.717,33.597c0.791-2.503,1.186-5.138,1.186-7.773C85.903,11.594,74.308,0,60.079,0 c-9.881,0-18.445,5.534-22.793,13.702c-1.581-0.527-3.426-0.791-5.138-0.791c-9.486,0-17.128,7.642-17.128,17.128 c0,1.186,0.132,2.372,0.395,3.426C6.719,34.783,0,42.424,0,51.515C0,61.66,8.169,69.829,18.314,69.829h63.373 C91.831,69.829,100,61.66,100,51.515C99.868,42.556,93.281,35.046,84.717,33.597z" fill="#b3c430" transform="scale(1)"></path>
</g><g transform="translate(-100 485.8357932464585) rotate(0)">
  <animateTransform attributeName="transform" type="translate" keyTimes="0;1" values="-100 485.8357932464585;1707 485.8357932464585" dur="83.33333333333333s" repeatCount="indefinite" begin="-146.27680191396368s"></animateTransform>
  <path d="M84.717,33.597c0.791-2.503,1.186-5.138,1.186-7.773C85.903,11.594,74.308,0,60.079,0 c-9.881,0-18.445,5.534-22.793,13.702c-1.581-0.527-3.426-0.791-5.138-0.791c-9.486,0-17.128,7.642-17.128,17.128 c0,1.186,0.132,2.372,0.395,3.426C6.719,34.783,0,42.424,0,51.515C0,61.66,8.169,69.829,18.314,69.829h63.373 C91.831,69.829,100,61.66,100,51.515C99.868,42.556,93.281,35.046,84.717,33.597z" fill="#b3c430" transform="scale(1)"></path>
</g><g transform="translate(-100 264.34057728910363) rotate(0)">
  <animateTransform attributeName="transform" type="translate" keyTimes="0;1" values="-100 264.34057728910363;1707 264.34057728910363" dur="83.33333333333333s" repeatCount="indefinite" begin="-299.48285418600295s"></animateTransform>
  <path d="M84.717,33.597c0.791-2.503,1.186-5.138,1.186-7.773C85.903,11.594,74.308,0,60.079,0 c-9.881,0-18.445,5.534-22.793,13.702c-1.581-0.527-3.426-0.791-5.138-0.791c-9.486,0-17.128,7.642-17.128,17.128 c0,1.186,0.132,2.372,0.395,3.426C6.719,34.783,0,42.424,0,51.515C0,61.66,8.169,69.829,18.314,69.829h63.373 C91.831,69.829,100,61.66,100,51.515C99.868,42.556,93.281,35.046,84.717,33.597z" fill="#b3c430" transform="scale(1)"></path>
</g><g transform="translate(-100 37.115250794157866) rotate(0)">
  <animateTransform attributeName="transform" type="translate" keyTimes="0;1" values="-100 37.115250794157866;1707 37.115250794157866" dur="83.33333333333333s" repeatCount="indefinite" begin="-109.9919794290606s"></animateTransform>
  <path d="M84.717,33.597c0.791-2.503,1.186-5.138,1.186-7.773C85.903,11.594,74.308,0,60.079,0 c-9.881,0-18.445,5.534-22.793,13.702c-1.581-0.527-3.426-0.791-5.138-0.791c-9.486,0-17.128,7.642-17.128,17.128 c0,1.186,0.132,2.372,0.395,3.426C6.719,34.783,0,42.424,0,51.515C0,61.66,8.169,69.829,18.314,69.829h63.373 C91.831,69.829,100,61.66,100,51.515C99.868,42.556,93.281,35.046,84.717,33.597z" fill="#b3c430" transform="scale(1)"></path>
</g><g transform="translate(-100 418.609259839424) rotate(0)">
  <animateTransform attributeName="transform" type="translate" keyTimes="0;1" values="-100 418.609259839424;1707 418.609259839424" dur="83.33333333333333s" repeatCount="indefinite" begin="-66.1351158146998s"></animateTransform>
  <path d="M84.717,33.597c0.791-2.503,1.186-5.138,1.186-7.773C85.903,11.594,74.308,0,60.079,0 c-9.881,0-18.445,5.534-22.793,13.702c-1.581-0.527-3.426-0.791-5.138-0.791c-9.486,0-17.128,7.642-17.128,17.128 c0,1.186,0.132,2.372,0.395,3.426C6.719,34.783,0,42.424,0,51.515C0,61.66,8.169,69.829,18.314,69.829h63.373 C91.831,69.829,100,61.66,100,51.515C99.868,42.556,93.281,35.046,84.717,33.597z" fill="#b3c430" transform="scale(1)"></path>
</g><g transform="translate(-100 321.66884456086945) rotate(0)">
  <animateTransform attributeName="transform" type="translate" keyTimes="0;1" values="-100 321.66884456086945;1707 321.66884456086945" dur="83.33333333333333s" repeatCount="indefinite" begin="-31.50431600636668s"></animateTransform>
  <path d="M84.717,33.597c0.791-2.503,1.186-5.138,1.186-7.773C85.903,11.594,74.308,0,60.079,0 c-9.881,0-18.445,5.534-22.793,13.702c-1.581-0.527-3.426-0.791-5.138-0.791c-9.486,0-17.128,7.642-17.128,17.128 c0,1.186,0.132,2.372,0.395,3.426C6.719,34.783,0,42.424,0,51.515C0,61.66,8.169,69.829,18.314,69.829h63.373 C91.831,69.829,100,61.66,100,51.515C99.868,42.556,93.281,35.046,84.717,33.597z" fill="#b3c430" transform="scale(1)"></path>
</g><g transform="translate(-100 121.98715085244567) rotate(0)">
  <animateTransform attributeName="transform" type="translate" keyTimes="0;1" values="-100 121.98715085244567;1707 121.98715085244567" dur="83.33333333333333s" repeatCount="indefinite" begin="-104.19199373838454s"></animateTransform>
  <path d="M84.717,33.597c0.791-2.503,1.186-5.138,1.186-7.773C85.903,11.594,74.308,0,60.079,0 c-9.881,0-18.445,5.534-22.793,13.702c-1.581-0.527-3.426-0.791-5.138-0.791c-9.486,0-17.128,7.642-17.128,17.128 c0,1.186,0.132,2.372,0.395,3.426C6.719,34.783,0,42.424,0,51.515C0,61.66,8.169,69.829,18.314,69.829h63.373 C91.831,69.829,100,61.66,100,51.515C99.868,42.556,93.281,35.046,84.717,33.597z" fill="#b3c430" transform="scale(1)"></path>
</g></g>
</svg>