<svg xml:space="preserve" viewBox="0 0 100 100" y="0" x="0" xmlns="http://www.w3.org/2000/svg" id="圖層_1" version="1.1" style="height: 100%; width: 100%;" width="200px" height="200px"><g class="ldl-scale" style="transform-origin: 50% 50%; transform: rotate(0deg) scale(0.8, 0.8);"><g class="ldl-ani"><g class="ldl-layer"><g class="ldl-ani" style="transform-origin: 50px 50px; transform: scale(0.91); animation: 3.125s linear -2.08333s infinite normal forwards running breath-299c4bdf-c74c-4d08-a96b-37978dbd7d1e;"><path fill="#333" d="M45.5 8.2l-29.4 17c-2.8 1.6-4.5 4.6-4.5 7.8v34c0 3.2 1.7 6.2 4.5 7.8l29.4 17c2.8 1.6 6.2 1.6 9 0l29.4-17c2.8-1.6 4.5-4.6 4.5-7.8V33c0-3.2-1.7-6.2-4.5-7.8l-29.4-17c-2.8-1.6-6.2-1.6-9 0z" style="fill: rgb(51, 51, 51);"></path></g></g><g class="ldl-layer"><g class="ldl-ani" style="transform-origin: 50px 50px; transform: scale(0.91); animation: 3.125s linear -2.60417s infinite normal forwards running breath-299c4bdf-c74c-4d08-a96b-37978dbd7d1e;"><path fill="#b3b3b3" clip-rule="evenodd" fill-rule="evenodd" d="M75 53.7c0-3.8-2.5-7.1-5.9-8.2.1-.8.2-1.6.2-2.4 0-9-7.3-16.4-16.4-16.4-7.8 0-14.3 5.4-16 12.7h-.4c-6.3 0-11.5 5.1-11.5 11.5 0 6.3 5.1 11.5 11.5 11.5h31v-.1c4.2-.6 7.5-4.2 7.5-8.6z" style="fill: rgb(179, 179, 179);"></path></g></g><g class="ldl-layer"><g class="ldl-ani" style="transform-origin: 50px 50px; transform: scale(0.91); animation: 3.125s linear -3.125s infinite normal forwards running breath-299c4bdf-c74c-4d08-a96b-37978dbd7d1e;"><path d="M65.6 60l-.4-.4-2.6-2.5-.4-.4-.7-.7-.7.7-.4.4-5.7 5.7V49.1h-6.8v13.7l-5.7-5.7-.4-.4-.7-.7-.7.7-.4.4-2.6 2.5-.4.4-.7.7.7.7.4.4 12.8 12.8.4.4.7.7.7-.7.4-.4 12.8-12.8.4-.4.7-.7z" fill="#fff" style="fill: rgb(255, 255, 255);"></path></g></g></g></g>
<style id="breath-299c4bdf-c74c-4d08-a96b-37978dbd7d1e">@keyframes breath-299c4bdf-c74c-4d08-a96b-37978dbd7d1e
{
  0% {
    animation-timing-function: cubic-bezier(0.9647,0.2413,-0.0705,0.7911);
    transform: scale(0.9099999999999999);
  }
  51% {
    animation-timing-function: cubic-bezier(0.9226,0.2631,-0.0308,0.7628);
    transform: scale(1.02994);
  }
  100% {
    transform: scale(0.9099999999999999);
  }
}</style></svg>