<svg xml:space="preserve" viewBox="0 0 100 100" y="0" x="0" xmlns="http://www.w3.org/2000/svg" id="圖層_1" version="1.1" style="height: 100%;width: 100%;" width="200px" height="200px"><g class="ldl-scale" style="transform-origin: 50% 50%; transform: rotate(0deg) scale(0.8, 0.8);"><g class="ldl-ani"><g class="ldl-layer"><g class="ldl-ani" style="transform-origin: 50px 50px; transform: rotate(0deg); animation: 100s linear -75s infinite normal forwards running cycle-3dd4b8fc-43a2-455c-bd3d-21e93777e820;"><path fill="#f8b26a" d="M92.5 58.5v-1c0-7.4-4.7-13.6-10.9-15.2-1-.3-1.8-1-2.1-2-.5-1.6.4-3.4 2-3.8 3.3-.9 6.6-1 9.6-.3-.2-.3-.3-.6-.5-.9-3.7-6.4-10.8-9.4-17.1-7.7-1 .3-2.1.1-2.8-.6-1.3-1.1-1.4-3.1-.2-4.3 2.4-2.4 5.2-4.2 8.2-5.1l-.9-.6c-6.4-3.7-14.1-2.8-18.6 1.8-.7.7-1.8 1.1-2.8.9-1.7-.3-2.7-2-2.3-3.6.9-3.3 2.4-6.2 4.5-8.5h-1c-7.4 0-13.6 4.7-15.2 10.9-.3 1-1 1.8-2 2.1-1.6.5-3.4-.4-3.8-2-.9-3.3-1-6.6-.3-9.6-.3.2-.6.3-.9.5-6.4 3.7-9.4 10.8-7.7 17.1.3 1 .1 2.1-.6 2.8-1.1 1.3-3.1 1.4-4.3.2-2.4-2.4-4.2-5.2-5.1-8.2l-.6.9c-3.7 6.4-2.8 14.1 1.8 18.6.7.7 1.1 1.8.9 2.8-.3 1.7-2 2.7-3.6 2.3-3.3-.9-6.2-2.4-8.5-4.5v1c0 7.4 4.7 13.6 10.9 15.2 1 .3 1.8 1 2.1 2 .5 1.6-.4 3.4-2 3.8-3.3.9-6.6 1-9.6.3.2.3.3.6.5.9 3.7 6.4 10.8 9.4 17.1 7.7 1-.3 2.1-.1 2.8.6 1.3 1.1 1.4 3.1.2 4.3-2.4 2.4-5.2 4.2-8.2 5.1l.9.6c6.4 3.7 14.1 2.8 18.6-1.8.7-.7 1.8-1.1 2.8-.9 1.7.3 2.7 2 2.3 3.6-.9 3.3-2.4 6.2-4.5 8.5h1c7.4 0 13.6-4.7 15.2-10.9.3-1 1-1.8 2-2.1 1.6-.5 3.4.4 3.8 2 .9 3.3 1 6.6.3 9.6.3-.2.6-.3.9-.5 6.4-3.7 9.4-10.8 7.7-17.1-.3-1-.1-2.1.6-2.8 1.1-1.3 3.1-1.4 4.3-.2 2.4 2.4 4.2 5.2 5.1 8.2l.6-.9c3.7-6.4 2.8-14.1-1.8-18.6-.7-.7-1.1-1.8-.9-2.8.3-1.7 2-2.7 3.6-2.3 3.3.8 6.2 2.4 8.5 4.5zM50 75c-13.8 0-25-11.2-25-25s11.2-25 25-25 25 11.2 25 25-11.2 25-25 25z" style="fill: rgb(248, 178, 106);"></path></g></g><g class="ldl-layer"><g class="ldl-ani" style="transform-origin: 50px 50px; transform: rotate(0deg); animation: 100s linear -100s infinite normal forwards running cycle-3dd4b8fc-43a2-455c-bd3d-21e93777e820;"><circle fill="#ffdc6c" r="27" cy="50" cx="50" style="fill: rgb(255, 220, 108);"></circle></g></g></g></g></svg>