<svg xml:space="preserve" viewBox="0 0 100 100" y="0" x="0" xmlns="http://www.w3.org/2000/svg" id="圖層_1" version="1.1" style="height: 100%; width: 100%;" width="200px" height="200px"><g class="ldl-scale" style="transform-origin: 50% 50%; transform: rotate(0deg) scale(0.8, 0.8);"><g class="ldl-ani"><g class="ldl-layer"><g class="ldl-ani" style="transform: scale(0.91); transform-origin: 50px 50px; animation: 1.11111s linear -0.740741s infinite normal forwards running breath-5784f03a-6188-4f25-8fd5-0aad3e8c654c;"><path fill="#333" d="M45.5 8.2l-29.4 17c-2.8 1.6-4.5 4.6-4.5 7.8v34c0 3.2 1.7 6.2 4.5 7.8l29.4 17c2.8 1.6 6.2 1.6 9 0l29.4-17c2.8-1.6 4.5-4.6 4.5-7.8V33c0-3.2-1.7-6.2-4.5-7.8l-29.4-17c-2.8-1.6-6.2-1.6-9 0z" style="fill: rgb(51, 51, 51);"></path></g></g><g class="ldl-layer"><g class="ldl-ani" style="transform: scale(0.91); transform-origin: 50px 50px; animation: 1.11111s linear -0.925926s infinite normal forwards running breath-5784f03a-6188-4f25-8fd5-0aad3e8c654c;"><path fill="#b3b3b3" clip-rule="evenodd" fill-rule="evenodd" d="M75 53.4c0-3.8-2.5-7.1-5.9-8.2.1-.8.2-1.6.2-2.4 0-9-7.3-16.4-16.4-16.4-7.8 0-14.3 5.4-16 12.7h-.4C30.1 39 25 44.1 25 50.5 25 56.8 30.1 62 36.5 62h31v-.1c4.2-.6 7.5-4.2 7.5-8.5z" style="fill: rgb(179, 179, 179);"></path></g></g><g class="ldl-layer"><g class="ldl-ani" style="transform: scale(0.91); transform-origin: 50px 50px; animation: 1.11111s linear -1.11111s infinite normal forwards running breath-5784f03a-6188-4f25-8fd5-0aad3e8c654c;"><path d="M65.6 62.3l-.4-.4-12.8-12.8-.4-.4-.7-.7-.7.7-.4.4-12.8 12.8-.4.4-.7.7.7.7.4.4 2.6 2.6.4.4.7.7.7-.7.4-.4 5.7-5.8V74.7h6.8V60.9l5.7 5.8.4.4.7.7.7-.7.4-.4 2.6-2.6.4-.4.7-.7z" fill="#fff" style="fill: rgb(255, 255, 255);"></path></g></g></g></g></svg>